<svg width="150" height="39" viewBox="0 0 150 39" fill="none" xmlns="http://www.w3.org/2000/svg">
<path d="M134.068 1.35434C134.734 0.886174 135.39 0.543408 136.039 0.326045C136.704 0.108682 137.386 0 138.084 0C138.899 0 139.614 0.133762 140.229 0.401286C140.844 0.66881 141.36 1.01994 141.775 1.45466C142.191 1.87267 142.499 2.35756 142.698 2.90932C142.914 3.44437 143.022 3.97942 143.022 4.51447C143.022 5.14984 142.923 5.70161 142.723 6.16978C142.524 6.63794 142.249 7.04759 141.9 7.39871C141.551 7.74984 141.143 8.0508 140.678 8.30161C140.212 8.55241 139.722 8.76978 139.206 8.9537L138.508 9.2045C137.976 9.08746 137.419 9.00386 136.837 8.9537C136.255 8.88682 135.739 8.85338 135.291 8.85338C134.077 8.85338 132.904 8.97042 131.774 9.2045C130.66 9.42187 129.604 9.74791 128.606 10.1826C128.573 10.0823 128.54 9.98199 128.506 9.88167C128.49 9.78135 128.465 9.68103 128.432 9.58071L134.068 1.35434ZM135.216 39C133.27 39 131.441 38.699 129.729 38.0971C128.033 37.4952 126.553 36.5839 125.289 35.3633C124.042 34.1428 123.053 32.6212 122.321 30.7987C121.589 28.9762 121.224 26.8444 121.224 24.4032C121.224 22.1961 121.564 20.2064 122.246 18.4341C122.928 16.645 123.884 15.1235 125.114 13.8695C126.345 12.6154 127.816 11.654 129.529 10.9852C131.242 10.3164 133.137 9.98199 135.216 9.98199C137.294 9.98199 139.19 10.3415 140.902 11.0605C142.615 11.7794 144.078 12.791 145.292 14.0952C146.522 15.3826 147.47 16.9293 148.135 18.735C148.817 20.5241 149.158 22.4887 149.158 24.6289C149.158 26.836 148.842 28.8257 148.21 30.5981C147.578 32.3704 146.664 33.8836 145.467 35.1376C144.269 36.3749 142.806 37.328 141.077 37.9968C139.348 38.6656 137.394 39 135.216 39ZM134.642 28.6418C134.758 28.7588 134.933 28.8174 135.166 28.8174C135.482 28.8174 135.69 28.7254 135.789 28.5415C135.906 28.3408 135.964 28.0232 135.964 27.5884V24.0019C135.964 23.2495 135.947 22.6141 135.914 22.0958C135.897 21.5775 135.848 21.1511 135.764 20.8167C135.681 20.4823 135.573 20.265 135.44 20.1646C135.324 20.0643 135.182 20.0141 135.016 20.0141C134.867 20.0141 134.742 20.0392 134.642 20.0894C134.559 20.1396 134.484 20.1981 134.418 20.265C134.434 20.5325 134.459 20.7833 134.492 21.0174C134.526 21.2514 134.551 21.519 134.567 21.8199C134.584 22.1042 134.6 22.4469 134.617 22.8482C134.634 23.2328 134.642 23.701 134.642 24.2527V28.6418Z" fill="#2249D1"/>
<path d="M106.383 4.0881C106.55 3.98778 106.816 3.84566 107.182 3.66174C107.547 3.47781 107.98 3.30225 108.479 3.13505C108.994 2.95113 109.576 2.80064 110.224 2.6836C110.873 2.54984 111.563 2.48296 112.295 2.48296C113.492 2.48296 114.514 2.61672 115.362 2.88425C116.227 3.15177 116.934 3.52798 117.482 4.01286C118.031 4.48103 118.43 5.04952 118.68 5.71833C118.946 6.38714 119.079 7.13119 119.079 7.95048V25.582C119.079 26.7357 119.203 27.7305 119.453 28.5666C119.702 29.3859 120.176 30.0129 120.874 30.4476C120.891 30.5813 120.899 30.7486 120.899 30.9492C120.899 31.1331 120.899 31.2752 120.899 31.3756C120.899 33.8 120.284 35.6225 119.054 36.8431C117.84 38.0637 116.144 38.674 113.966 38.674C112.985 38.674 112.037 38.5318 111.122 38.2476C110.208 37.9633 109.401 37.4868 108.703 36.818C108.005 36.1492 107.439 35.2714 107.007 34.1846C106.591 33.0977 106.383 31.7518 106.383 30.1466V4.0881Z" fill="#2249D1"/>
<path d="M74.9323 9.30482C74.9323 8.92026 75.2399 8.49389 75.8551 8.02572C76.487 7.54084 77.3932 7.08939 78.5738 6.67138C79.7543 6.25338 81.1926 5.90225 82.8886 5.61801C84.6013 5.33376 86.5301 5.19164 88.675 5.19164C91.3188 5.19164 93.5719 5.45916 95.4342 5.99421C97.2964 6.51254 98.8096 7.21479 99.9735 8.10096C101.154 8.98714 102.01 10.0154 102.542 11.1859C103.091 12.3395 103.366 13.5518 103.366 14.8225C103.366 15.3074 103.324 15.8006 103.241 16.3023C103.158 16.7871 103.033 17.2553 102.867 17.7068C102.7 18.1582 102.484 18.5846 102.218 18.9859C101.969 19.3704 101.678 19.6881 101.345 19.9389C100.88 19.7048 100.422 19.5376 99.9735 19.4373C99.5245 19.3203 99.1338 19.2617 98.8012 19.2617C98.4521 19.2617 98.1694 19.3286 97.9532 19.4624C97.7371 19.5961 97.629 19.8804 97.629 20.3151C98.926 20.3653 100.048 20.6328 100.996 21.1177C101.944 21.6026 102.725 22.2296 103.341 22.9987C103.956 23.7511 104.413 24.6206 104.712 25.6071C105.012 26.5768 105.161 27.5884 105.161 28.6418C105.161 30.4476 104.787 31.9775 104.039 33.2315C103.291 34.4855 102.202 35.5055 100.772 36.2913C99.3583 37.0605 97.6124 37.6206 95.5339 37.9717C93.4721 38.3228 91.1193 38.4984 88.4755 38.4984C86.58 38.4984 84.9421 38.465 83.562 38.3981C82.182 38.3479 80.9931 38.2559 79.9954 38.1222C78.2329 37.8881 76.9443 37.328 76.1295 36.4418C75.3314 35.5389 74.9323 34.1595 74.9323 32.3035V9.30482ZM88.4755 18.9608C88.5254 18.9942 88.6002 19.0193 88.7 19.036C88.8164 19.036 88.8912 19.036 88.9244 19.036C89.3235 19.036 89.6062 18.9106 89.7725 18.6598C89.9387 18.409 90.0219 17.9994 90.0219 17.4309V17.2804C90.0219 16.6952 89.947 16.2688 89.7974 16.0013C89.6644 15.7338 89.4066 15.6 89.0242 15.6C88.9411 15.6 88.8413 15.6084 88.7249 15.6251C88.6085 15.6418 88.5171 15.6669 88.4506 15.7003C88.4672 15.8341 88.4755 15.9762 88.4755 16.1267C88.4755 16.2772 88.4755 16.436 88.4755 16.6032V18.9608ZM88.4755 28.4161C88.5254 28.4495 88.6002 28.4746 88.7 28.4913C88.8164 28.4913 88.8912 28.4913 88.9244 28.4913C89.3235 28.4913 89.6062 28.391 89.7725 28.1904C89.9387 27.973 90.0219 27.5801 90.0219 27.0116V26.535C90.0219 25.9498 89.947 25.5151 89.7974 25.2309C89.6644 24.9466 89.4066 24.8045 89.0242 24.8045C88.9411 24.8045 88.8413 24.8129 88.7249 24.8296C88.6085 24.8463 88.5171 24.8714 88.4506 24.9048C88.4672 25.0386 88.4755 25.1807 88.4755 25.3312C88.4755 25.4817 88.4755 25.6405 88.4755 25.8077V28.4161Z" fill="#2249D1"/>
<path d="M59.5185 27.0367C59.1361 27.0367 58.8617 27.137 58.6955 27.3376C58.5458 27.5215 58.471 27.7389 58.471 27.9897C58.471 28.3241 58.5874 28.5582 58.8202 28.692C59.0696 28.8257 59.3606 28.8926 59.6931 28.8926C60.2252 28.8926 60.6326 28.7588 60.9153 28.4913C61.1979 28.2238 61.3393 27.7389 61.3393 27.0367H59.5185ZM72.4631 25.8077C72.4631 26.9614 72.5878 27.9145 72.8372 28.6669C73.0867 29.4193 73.5605 30.0129 74.2589 30.4476C74.2755 30.5813 74.2839 30.7486 74.2839 30.9492C74.2839 31.1331 74.2839 31.2752 74.2839 31.3756C74.2839 32.6463 74.0843 33.7415 73.6853 34.6611C73.2862 35.5807 72.7624 36.3415 72.1139 36.9434C71.4821 37.5286 70.7588 37.9633 69.944 38.2476C69.1293 38.5318 68.2979 38.674 67.4499 38.674C66.8513 38.674 66.261 38.5987 65.6791 38.4482C65.1137 38.3145 64.5733 38.1055 64.0579 37.8212C63.559 37.537 63.1018 37.1775 62.6861 36.7428C62.287 36.2913 61.9711 35.7646 61.7383 35.1627C61.4557 35.1627 61.2395 35.2379 61.0898 35.3884C60.9568 35.5389 60.8903 35.7395 60.8903 35.9904C60.8903 36.2244 60.9651 36.4752 61.1148 36.7428C61.2644 37.0103 61.4806 37.2862 61.7633 37.5704C61.2312 37.9383 60.5162 38.2141 59.6183 38.3981C58.7204 38.582 57.8059 38.674 56.8747 38.674C55.3616 38.674 53.9815 38.465 52.7345 38.0469C51.504 37.6289 50.4399 37.0103 49.542 36.191C48.6607 35.3717 47.9707 34.3768 47.4718 33.2064C46.9896 32.0193 46.7485 30.6566 46.7485 29.1183C46.7485 27.5299 47.0063 26.1588 47.5217 25.0051C48.0538 23.8347 48.7688 22.8733 49.6667 22.1209C50.5646 21.3518 51.6038 20.7833 52.7844 20.4154C53.9815 20.0476 55.2452 19.8637 56.5755 19.8637C57.174 19.8637 57.7061 19.8887 58.1717 19.9389C58.6373 19.9723 59.0363 20.0141 59.3689 20.0643C59.7513 20.1312 60.0756 20.1981 60.3416 20.265C60.3915 20.0977 60.4164 19.9556 60.4164 19.8386C60.4164 19.6212 60.3 19.4373 60.0672 19.2868C59.8511 19.1363 59.5601 19.0277 59.1943 18.9608C58.8285 18.8772 58.4045 18.8186 57.9223 18.7852C57.4401 18.7518 56.9496 18.735 56.4507 18.735C55.3201 18.735 54.1894 18.8605 53.0587 19.1113C51.928 19.3621 50.9138 19.7466 50.0159 20.265C49.6501 19.6463 49.3508 18.8605 49.118 17.9074C48.9018 16.9543 48.7937 15.9846 48.7937 14.9981C48.7937 14.5299 48.8187 14.0617 48.8686 13.5936C48.9351 13.1087 49.0598 12.6823 49.2427 12.3145C49.675 12.1138 50.2237 11.8965 50.8888 11.6624C51.5705 11.4116 52.352 11.1859 53.2333 10.9852C54.1312 10.7678 55.1122 10.5839 56.1764 10.4334C57.2572 10.283 58.4128 10.2077 59.6432 10.2077C61.7882 10.2077 63.6588 10.4502 65.2551 10.935C66.8679 11.4199 68.2065 12.1222 69.2706 13.0418C70.3348 13.9447 71.1329 15.065 71.665 16.4026C72.1971 17.7235 72.4631 19.2199 72.4631 20.892V25.8077Z" fill="#EE33DF"/>
<path d="M31.6091 4.0881C31.7753 3.98778 32.0414 3.84566 32.4072 3.66174C32.773 3.47781 33.2053 3.30225 33.7041 3.13505C34.2196 2.95113 34.8016 2.80064 35.45 2.6836C36.0985 2.54984 36.7886 2.48296 37.5202 2.48296C38.7174 2.48296 39.74 2.61672 40.588 2.88425C41.4526 3.15177 42.1593 3.52798 42.708 4.01286C43.2567 4.48103 43.6558 5.04952 43.9052 5.71833C44.1712 6.38714 44.3042 7.13119 44.3042 7.95048V25.582C44.3042 26.7357 44.429 27.7305 44.6784 28.5666C44.9278 29.3859 45.4017 30.0129 46.1 30.4476C46.1167 30.5813 46.125 30.7486 46.125 30.9492C46.125 31.1331 46.125 31.2752 46.125 31.3756C46.125 33.8 45.5097 35.6225 44.2793 36.8431C43.0655 38.0637 41.3695 38.674 39.1913 38.674C38.2102 38.674 37.2625 38.5318 36.3479 38.2476C35.4334 37.9633 34.627 37.4868 33.9286 36.818C33.2303 36.1492 32.6649 35.2714 32.2326 34.1846C31.8169 33.0977 31.6091 31.7518 31.6091 30.1466V4.0881Z" fill="#EE33DF"/>
<path d="M0.157959 9.30483C0.157959 8.92026 0.46557 8.49389 1.08079 8.02573C1.71264 7.54084 2.61884 7.08939 3.79941 6.67139C4.97997 6.25338 6.41825 5.90225 8.11427 5.61801C9.82691 5.33376 11.7557 5.19164 13.9007 5.19164C16.5445 5.19164 18.7975 5.45917 20.6598 5.99422C22.5221 6.51254 24.0352 7.21479 25.1991 8.10097C26.3797 8.98714 27.236 10.0154 27.7681 11.1859C28.3168 12.3396 28.5912 13.5518 28.5912 14.8225C28.5912 15.3074 28.5496 15.8006 28.4665 16.3023C28.3833 16.7871 28.2586 17.2553 28.0923 17.7068C27.9261 18.1582 27.7099 18.5846 27.4439 18.9859C27.1944 19.3704 26.9035 19.6881 26.5709 19.9389C26.1053 19.7048 25.6481 19.5376 25.1991 19.4373C24.7502 19.3203 24.3594 19.2617 24.0269 19.2617C23.6777 19.2617 23.395 19.3286 23.1789 19.4624C22.9627 19.5961 22.8546 19.8804 22.8546 20.3151C24.1516 20.3653 25.274 20.6328 26.2217 21.1177C27.1695 21.6026 27.951 22.2296 28.5662 22.9987C29.1814 23.7511 29.6387 24.6206 29.938 25.6071C30.2373 26.5769 30.387 27.5884 30.387 28.6418C30.387 30.4476 30.0128 31.9775 29.2646 33.2315C28.5163 34.4855 27.4272 35.5055 25.9973 36.2913C24.5839 37.0605 22.838 37.6206 20.7596 37.9717C18.6977 38.3228 16.3449 38.4984 13.7011 38.4984C11.8056 38.4984 10.1678 38.465 8.78769 38.3981C7.4076 38.3479 6.21872 38.256 5.22107 38.1222C3.45854 37.8881 2.1699 37.328 1.35515 36.4418C0.557022 35.5389 0.157959 34.1595 0.157959 32.3035V9.30483ZM13.7011 18.9608C13.751 18.9942 13.8259 19.0193 13.9256 19.036C14.042 19.036 14.1168 19.036 14.1501 19.036C14.5492 19.036 14.8318 18.9106 14.9981 18.6598C15.1644 18.409 15.2475 17.9994 15.2475 17.4309V17.2804C15.2475 16.6952 15.1727 16.2688 15.023 16.0013C14.89 15.7338 14.6323 15.6 14.2499 15.6C14.1667 15.6 14.067 15.6084 13.9506 15.6251C13.8342 15.6418 13.7427 15.6669 13.6762 15.7003C13.6928 15.8341 13.7011 15.9762 13.7011 16.1267C13.7011 16.2772 13.7011 16.436 13.7011 16.6032V18.9608ZM13.7011 28.4161C13.751 28.4495 13.8259 28.4746 13.9256 28.4913C14.042 28.4913 14.1168 28.4913 14.1501 28.4913C14.5492 28.4913 14.8318 28.391 14.9981 28.1904C15.1644 27.973 15.2475 27.5801 15.2475 27.0116V26.5351C15.2475 25.9498 15.1727 25.5151 15.023 25.2309C14.89 24.9466 14.6323 24.8045 14.2499 24.8045C14.1667 24.8045 14.067 24.8129 13.9506 24.8296C13.8342 24.8463 13.7427 24.8714 13.6762 24.9048C13.6928 25.0386 13.7011 25.1807 13.7011 25.3312C13.7011 25.4817 13.7011 25.6405 13.7011 25.8077V28.4161Z" fill="#EE33DF"/>
</svg>
