<svg width="21" height="20" viewBox="0 0 21 20" fill="none" xmlns="http://www.w3.org/2000/svg">
<path d="M12.7996 15H4.4663V5H12.7996V5.83333H14.4663V2.5C14.4663 1.58333 13.7163 0.833332 12.7996 0.833332H4.4663C3.54963 0.833332 2.79963 1.58333 2.79963 2.5V17.5C2.79963 18.4167 3.54963 19.1667 4.4663 19.1667H12.7996C13.7163 19.1667 14.4663 18.4167 14.4663 17.5V14.1667H12.7996V15Z" fill="#EE33DF"/>
<path d="M15.6163 8.01666L15.9496 8.74166C16.0246 8.90833 16.258 8.90833 16.333 8.74166L16.6663 8.01666L17.3913 7.68333C17.558 7.60833 17.558 7.375 17.3913 7.3L16.6663 6.96666L16.333 6.24166C16.258 6.075 16.0246 6.075 15.9496 6.24166L15.6163 6.96666L14.8913 7.3C14.7246 7.375 14.7246 7.60833 14.8913 7.68333L15.6163 8.01666Z" fill="#EE33DF"/>
<path d="M11.583 7.5L10.9246 8.95833L9.4663 9.61667C9.1413 9.76667 9.1413 10.225 9.4663 10.375L10.9246 11.0333L11.583 12.5C11.733 12.825 12.1913 12.825 12.3413 12.5L12.9996 11.0417L14.4663 10.3833C14.7913 10.2333 14.7913 9.775 14.4663 9.625L13.008 8.96666L12.3496 7.5C12.1996 7.175 11.733 7.175 11.583 7.5Z" fill="#EE33DF"/>
<path d="M15.9413 11.25L15.608 11.975L14.883 12.3083C14.7163 12.3833 14.7163 12.6167 14.883 12.6917L15.608 13.025L15.9413 13.75C16.0163 13.9167 16.2496 13.9167 16.3246 13.75L16.658 13.025L17.383 12.6917C17.5496 12.6167 17.5496 12.3833 17.383 12.3083L16.658 11.975L16.3246 11.25C16.2496 11.0917 16.0163 11.0917 15.9413 11.25Z" fill="#EE33DF"/>
</svg>
