<svg width="24" height="25" viewBox="0 0 24 25" fill="none" xmlns="http://www.w3.org/2000/svg">
<path d="M11.6798 0.296327C11.7248 -0.0987756 12.2752 -0.0987756 12.3202 0.296327L12.6978 3.61088C13.1853 7.89086 16.4248 11.2653 20.5335 11.7731L23.7155 12.1664C24.0948 12.2133 24.0948 12.7867 23.7155 12.8336L20.5335 13.2269C16.4248 13.7347 13.1853 17.1091 12.6978 21.3891L12.3202 24.7036C12.2752 25.0988 11.7248 25.0988 11.6798 24.7036L11.3022 21.3891C10.8147 17.1091 7.57523 13.7347 3.46644 13.2269L0.284474 12.8336C-0.0948246 12.7867 -0.0948246 12.2133 0.284474 12.1664L3.46644 11.7731C7.57523 11.2653 10.8147 7.89086 11.3022 3.61088L11.6798 0.296327Z" fill="#3B61FF"/>
</svg>
