<svg width="49" height="51" viewBox="0 0 49 51" fill="none" xmlns="http://www.w3.org/2000/svg">
<path d="M23.5175 0.604507C23.6076 -0.201502 24.7084 -0.201502 24.7984 0.604507L25.5535 7.36619C26.5286 16.0974 33.0075 22.9812 41.225 24.0172L47.5889 24.8195C48.3476 24.9152 48.3476 26.0848 47.5889 26.1805L41.225 26.9828C33.0075 28.0188 26.5286 34.9026 25.5535 43.6337L24.7984 50.3954C24.7084 51.2015 23.6076 51.2015 23.5175 50.3954L22.7624 43.6337C21.7873 34.9026 15.3084 28.0188 7.09085 26.9828L0.726907 26.1805C-0.0316903 26.0848 -0.0316903 24.9152 0.726907 24.8195L7.09085 24.0172C15.3084 22.9812 21.7873 16.0974 22.7624 7.36619L23.5175 0.604507Z" fill="#FE4BA1"/>
</svg>
